<?xml version="1.0" standalone="no"?>
<!DOCTYPE svg PUBLIC "-//W3C//DTD SVG 20010904//EN"
 "http://www.w3.org/TR/2001/REC-SVG-20010904/DTD/svg10.dtd">
<svg version="1.0" xmlns="http://www.w3.org/2000/svg"
 width="221.000000pt" height="221.000000pt" viewBox="0 0 221.000000 221.000000"
 preserveAspectRatio="xMidYMid meet">
<metadata>
Created by potrace 1.11, written by Peter Selinger 2001-2013
</metadata>
<g transform="translate(0.000000,221.000000) scale(0.100000,-0.100000)"
fill="#000000" stroke="none">
<path d="M1280 2197 c-30 -7 -70 -20 -89 -30 -24 -12 -38 -14 -45 -7 -20 20
-56 9 -138 -41 -91 -57 -100 -66 -92 -90 3 -11 -16 -36 -56 -75 -87 -82 -134
-179 -134 -277 -1 -66 1 -72 20 -75 17 -2 30 10 57 55 42 69 82 108 157 156
44 27 58 32 72 23 20 -12 43 -2 149 67 43 28 65 50 67 65 7 46 152 113 275
127 64 7 80 24 52 55 -40 44 -198 69 -295 47z"/>
<path d="M1176 1858 c-37 -23 -70 -47 -73 -54 -2 -7 49 -103 114 -214 65 -111
141 -241 169 -289 27 -47 58 -87 67 -89 25 -5 127 60 133 85 4 15 -27 76 -111
220 -65 109 -140 236 -167 283 -27 47 -52 88 -56 92 -4 4 -38 -11 -76 -34z"/>
<path d="M864 1656 c-27 -27 -34 -42 -34 -74 0 -81 88 -140 162 -109 90 38 87
156 -4 203 -47 24 -86 18 -124 -20z"/>
<path d="M714 1451 c-64 -56 -130 -87 -236 -110 -203 -44 -296 -91 -363 -186
-48 -66 -61 -123 -45 -193 30 -139 130 -255 280 -326 82 -39 89 -41 185 -41
82 0 109 4 147 22 49 23 138 98 138 117 0 10 -150 116 -164 116 -3 0 -25 -14
-48 -30 -55 -40 -135 -42 -207 -6 -92 47 -148 144 -117 203 31 61 89 90 256
129 150 34 243 79 325 156 36 33 65 64 65 69 0 4 -18 14 -41 20 -23 7 -62 32
-88 55 l-46 42 -41 -37z"/>
<path d="M1564 1196 c-70 -70 -26 -175 74 -176 62 0 102 40 102 103 0 39 -5
49 -35 76 -50 44 -95 43 -141 -3z"/>
<path d="M1795 1109 c-3 -8 -6 -54 -7 -102 l-3 -88 38 -14 c80 -27 117 -86
117 -182 0 -74 -28 -136 -72 -163 -78 -48 -159 -10 -313 145 -122 123 -207
180 -319 214 -37 12 -72 21 -78 21 -6 0 -7 -21 -3 -52 5 -38 2 -67 -10 -101
-9 -27 -15 -50 -13 -52 2 -1 28 -10 58 -18 81 -24 134 -62 261 -189 95 -95
127 -121 193 -154 71 -34 87 -38 155 -39 57 0 88 6 123 22 149 68 238 256 210
439 -14 90 -47 156 -109 218 -68 70 -215 130 -228 95z"/>
<path d="M880 943 c-42 -35 -54 -67 -40 -109 24 -72 103 -104 170 -69 32 17
60 61 60 95 0 91 -119 143 -190 83z"/>
<path d="M561 428 c-78 -53 -65 -127 39 -219 39 -34 70 -69 70 -78 0 -41 -58
-55 -92 -24 -18 16 -22 16 -46 2 -62 -34 -1 -99 94 -99 46 0 57 4 88 34 30 28
36 40 36 75 0 57 -18 87 -89 149 -60 53 -75 84 -46 96 8 3 26 0 40 -6 19 -9
29 -7 50 6 31 20 31 27 1 55 -37 35 -102 39 -145 9z"/>
<path d="M354 427 c-2 -7 -3 -102 -2 -212 l3 -200 43 -3 42 -3 0 215 0 216
-40 0 c-24 0 -43 -5 -46 -13z"/>
<path d="M810 225 l0 -216 133 3 132 3 0 30 0 30 -90 5 -90 5 0 55 0 55 78 3
78 3 -3 32 -3 32 -75 5 -75 5 -3 47 -3 47 93 3 93 3 3 33 3 32 -135 0 -136 0
0 -215z"/>
<path d="M1140 225 l0 -215 130 0 130 0 0 35 0 35 -85 0 -85 0 0 180 0 180
-45 0 -45 0 0 -215z"/>
<path d="M1478 258 c-3 -19 -3 -193 1 -236 1 -9 12 -12 33 -10 37 3 48 23 18
31 -18 5 -20 13 -20 101 0 85 2 96 20 106 30 16 24 30 -14 30 -27 0 -34 -4
-38 -22z"/>
<path d="M1960 175 c0 -83 3 -105 14 -105 20 0 23 16 21 100 -4 111 -4 110
-20 110 -12 0 -15 -18 -15 -105z"/>
<path d="M2010 270 c0 -5 8 -13 17 -18 25 -15 26 -190 1 -206 -30 -18 -22 -38
15 -34 l32 3 3 133 3 132 -36 0 c-19 0 -35 -4 -35 -10z"/>
<path d="M1569 209 c-27 -27 -10 -52 19 -26 21 19 48 22 57 6 10 -14 2 -20
-37 -26 -46 -7 -60 -21 -56 -57 3 -31 3 -31 71 -34 l67 -3 -4 66 c-2 36 -10
73 -16 81 -19 21 -76 18 -101 -7z m81 -78 c0 -15 -31 -42 -44 -38 -6 2 -12 11
-14 20 -3 14 3 17 51 26 4 0 7 -3 7 -8z"/>
<path d="M1814 221 c-12 -13 0 -21 32 -21 20 0 34 -3 32 -8 -10 -25 -75 -101
-83 -98 -14 4 -19 106 -6 106 6 0 11 5 11 10 0 6 -20 10 -45 10 -44 0 -60 -12
-30 -24 10 -4 15 -20 15 -50 0 -30 -5 -46 -15 -50 -8 -3 -15 -10 -15 -16 0 -6
44 -10 120 -10 102 0 119 2 114 15 -4 9 -19 15 -40 15 -19 0 -34 4 -34 8 0 5
16 27 36 50 20 23 34 47 32 53 -4 11 -115 19 -124 10z"/>
</g>
</svg>
