<?xml version="1.0" standalone="no"?>
<!DOCTYPE svg PUBLIC "-//W3C//DTD SVG 20010904//EN"
 "http://www.w3.org/TR/2001/REC-SVG-20010904/DTD/svg10.dtd">
<svg version="1.0" xmlns="http://www.w3.org/2000/svg"
 width="223.000000pt" height="223.000000pt" viewBox="0 0 223.000000 223.000000"
 preserveAspectRatio="xMidYMid meet">
<metadata>
Created by potrace 1.11, written by Peter Selinger 2001-2013
</metadata>
<g transform="translate(0.000000,223.000000) scale(0.100000,-0.100000)"
fill="#000000" stroke="none">
<path d="M1242 2185 c-29 -8 -65 -21 -81 -30 -26 -13 -30 -13 -41 0 -7 8 -17
15 -23 15 -7 0 -54 -25 -105 -57 -86 -51 -93 -59 -89 -82 4 -22 -3 -32 -39
-61 -87 -69 -154 -196 -157 -299 -2 -50 0 -56 19 -59 16 -2 28 7 45 35 45 76
84 117 153 161 59 38 72 43 88 33 17 -10 31 -5 96 35 96 59 112 72 112 95 0
40 157 114 266 126 60 7 69 11 72 29 8 53 -200 92 -316 59z"/>
<path d="M1147 1844 c-37 -24 -66 -48 -64 -52 2 -4 40 -68 84 -142 44 -74 119
-201 167 -282 64 -110 92 -148 106 -148 23 0 111 54 123 75 5 10 -28 75 -109
212 -64 109 -140 238 -169 287 -28 50 -56 91 -61 92 -5 2 -40 -17 -77 -42z"/>
<path d="M863 1668 c-30 -15 -55 -70 -47 -105 16 -67 93 -108 155 -83 40 17
59 47 59 93 0 56 -52 107 -106 106 -22 0 -49 -5 -61 -11z"/>
<path d="M691 1439 c-61 -55 -129 -84 -260 -113 -199 -45 -299 -105 -352 -212
-29 -58 -31 -70 -25 -127 20 -200 242 -388 460 -389 97 0 169 26 234 87 l54
50 -83 56 -84 56 -39 -31 c-34 -28 -44 -31 -110 -31 -63 0 -79 4 -121 30 -107
66 -144 161 -90 231 34 44 88 68 248 108 158 40 252 85 326 156 53 50 62 70
36 70 -24 0 -72 27 -113 64 l-37 34 -44 -39z"/>
<path d="M1575 1214 c-75 -39 -78 -141 -6 -178 43 -23 75 -20 110 10 59 50 46
140 -24 170 -42 17 -43 17 -80 -2z"/>
</g>
</svg>
